<svg width="31" height="31" viewBox="0 0 31 31" fill="none" xmlns="http://www.w3.org/2000/svg">
<path fill-rule="evenodd" clip-rule="evenodd" d="M15.5404 24.731L6.16267 30.5921V24.731H3.08134C1.37956 24.731 0 23.3515 0 21.6497V3.16166C0 1.45988 1.37956 0.0803223 3.08134 0.0803223H27.732C29.4338 0.0803223 30.8134 1.45988 30.8134 3.16166V21.6497C30.8134 23.3515 29.4338 24.731 27.732 24.731H15.5404ZM9.24401 25.0326L14.6567 21.6497H27.732V3.16166H3.08134V21.6497H9.24401V25.0326ZM13.866 13.3082L20.4799 6.69425L22.6588 8.87308L13.866 17.6658L8.15459 11.9544L10.3334 9.77558L13.866 13.3082Z" fill="#141736"/>
</svg>
