<svg width="34" height="35" viewBox="0 0 34 35" fill="none" xmlns="http://www.w3.org/2000/svg">
<path d="M21.4219 14.0346L21.3597 13.7878C21.1238 12.844 20.5791 12.0061 19.8124 11.4074C19.0457 10.8086 18.1008 10.4832 17.128 10.483H16.201C15.4414 10.4832 14.7056 10.7479 14.12 11.2316C13.5344 11.7153 13.1354 12.3879 12.9917 13.1337C12.848 13.8796 12.9685 14.6522 13.3325 15.3189C13.6965 15.9855 14.2812 16.5047 14.9863 16.7871L18.9784 18.3854C19.6835 18.6678 20.2682 19.1869 20.6322 19.8536C20.9962 20.5203 21.1167 21.2929 20.973 22.0388C20.8293 22.7846 20.4303 23.4572 19.8447 23.9409C19.2591 24.4246 18.5233 24.6893 17.7637 24.6895H16.8385C15.8654 24.6897 14.9201 24.3645 14.153 23.7657C13.3859 23.1669 12.841 22.3288 12.605 21.3847L12.5428 21.1379M16.9824 6.93133V10.483M16.9824 24.6895V28.2411M32.9647 17.5862C32.9647 19.6851 32.5513 21.7634 31.7481 23.7024C30.9449 25.6415 29.7677 27.4034 28.2836 28.8875C26.7995 30.3716 25.0376 31.5488 23.0985 32.352C21.1595 33.1552 19.0812 33.5686 16.9824 33.5686C14.8835 33.5686 12.8052 33.1552 10.8662 32.352C8.9271 31.5488 7.16522 30.3716 5.68112 28.8875C4.19702 27.4034 3.01977 25.6415 2.21658 23.7024C1.4134 21.7634 1 19.6851 1 17.5862C1 13.3475 2.68385 9.28228 5.68112 6.28501C8.6784 3.28773 12.7436 1.60388 16.9824 1.60388C21.2211 1.60388 25.2863 3.28773 28.2836 6.28501C31.2809 9.28228 32.9647 13.3475 32.9647 17.5862Z" stroke="#141736" stroke-width="2" stroke-linecap="round" stroke-linejoin="round"/>
</svg>
