<svg width="36" height="34" viewBox="0 0 36 34" fill="none" xmlns="http://www.w3.org/2000/svg">
<path d="M32 32.1038H9.85714C4.96548 32.1038 1 28.1382 1 23.2466V1.10376" stroke="#141736" stroke-width="2" stroke-linecap="round" stroke-linejoin="round"/>
<path d="M25.1391 7.1038C24.2211 7.1038 23.4769 7.84273 23.4769 8.75424C23.4769 9.66575 24.2211 10.4047 25.1391 10.4047V7.1038ZM33.7403 10.4047C34.6583 10.4047 35.4025 9.66575 35.4025 8.75424C35.4025 7.84273 34.6583 7.1038 33.7403 7.1038V10.4047ZM35.4025 8.75424C35.4025 7.84273 34.6583 7.1038 33.7403 7.1038C32.8223 7.1038 32.0781 7.84273 32.0781 8.75424H35.4025ZM32.0781 16.6918C32.0781 17.6033 32.8223 18.3422 33.7403 18.3422C34.6583 18.3422 35.4025 17.6033 35.4025 16.6918H32.0781ZM35.0179 9.80993C35.605 9.10926 35.5091 8.06863 34.8034 7.48558C34.0978 6.90255 33.0497 6.9979 32.4626 7.69855L35.0179 9.80993ZM24.8753 19.3325L25.9919 20.5552C26.0495 20.5032 26.1031 20.4475 26.153 20.3881L24.8753 19.3325ZM21.3981 19.4667L20.3682 20.7622L20.3804 20.7717L21.3981 19.4667ZM19.0732 17.6446L20.1031 16.3492L20.0947 16.3426L19.0732 17.6446ZM15.3455 18.0474L14.0659 16.9939C14.0495 17.0135 14.0335 17.0335 14.018 17.054L15.3455 18.0474ZM15.0619 18.3818L16.2484 19.5376C16.2568 19.529 16.2653 19.5202 16.2735 19.5116L15.0619 18.3818ZM7.87797 23.2975C7.23517 23.9485 7.24537 24.9933 7.90075 25.6315C8.55614 26.2699 9.60854 26.2598 10.2513 25.609L7.87797 23.2975ZM25.1391 10.4047H33.7403V7.1038H25.1391V10.4047ZM32.0781 8.75424V16.6918H35.4025V8.75424H32.0781ZM32.4626 7.69855L23.5977 18.2769L26.153 20.3881L35.0179 9.80993L32.4626 7.69855ZM23.7588 18.1099C23.3829 18.4483 22.8167 18.4701 22.4155 18.1618L20.3804 20.7717C22.0563 22.0601 24.4217 21.9688 25.9919 20.5552L23.7588 18.1099ZM22.4277 18.1713L20.1031 16.3492L18.0434 18.9401L20.3682 20.7622L22.4277 18.1713ZM20.0947 16.3426C18.2379 14.9064 15.568 15.1949 14.0659 16.9939L16.625 19.1008C16.9804 18.675 17.6123 18.6067 18.0518 18.9467L20.0947 16.3426ZM14.018 17.054C13.9657 17.1229 13.9096 17.1891 13.85 17.2521L16.2735 19.5116C16.4151 19.3618 16.5483 19.2047 16.6728 19.0407L14.018 17.054ZM13.8751 17.2261L7.87797 23.2975L10.2513 25.609L16.2484 19.5376L13.8751 17.2261Z" fill="#141736"/>
</svg>
