<svg width="48" height="48" viewBox="0 0 48 48" fill="none" xmlns="http://www.w3.org/2000/svg">
<path d="M30.1079 7.91895C30.6201 7.91895 31.2641 8.05423 31.7812 8.17973C33.5823 8.61673 35.7183 9.15701 37.2353 10.2947C38.6469 11.3534 39.7435 13.2018 40.5899 15.0782C42.3533 18.9877 43.5778 24.2006 44.0019 28.1638C44.2034 30.0466 44.2541 31.9383 43.8906 33.2105C43.7114 33.8372 43.3262 34.3076 43.0545 34.5956C42.2273 35.4731 41.1623 36.1288 40.1101 36.7254L39.5863 37.0195C39.2457 37.2098 38.8964 37.3986 38.5477 37.5827L37.5135 38.1176L36.095 38.8248L34.9529 39.387C33.9751 39.876 32.7858 39.4796 32.2968 38.5016C31.9109 37.7299 32.0764 36.8265 32.6441 36.2395L31.784 34.5196C29.4609 35.2407 26.8725 35.6362 24.1619 35.6362C21.4513 35.6362 18.8629 35.2407 16.5397 34.5196L15.6821 36.2349C16.2534 36.8217 16.4208 37.7277 16.0339 38.5016C15.5449 39.4796 14.3557 39.876 13.3777 39.387L12.3014 38.853C11.1055 38.2617 9.90988 37.6707 8.74432 37.0195C7.52993 36.3412 6.24125 35.6194 5.27619 34.5956C5.00459 34.3076 4.61918 33.8372 4.44015 33.2105C4.07669 31.9383 4.12734 30.0466 4.3288 28.1638C4.75284 24.2006 5.97738 18.9877 7.74082 15.0782C8.58724 13.2018 9.68384 11.3534 11.0954 10.2947C12.6124 9.15701 14.7485 8.61673 16.5494 8.17973C17.0666 8.05423 17.7106 7.91895 18.2227 7.91895C19.3161 7.91895 20.2025 8.80535 20.2025 9.89876C20.2025 9.99782 20.1953 10.0952 20.1812 10.1903C21.4628 9.99924 22.7958 9.89876 24.1623 9.89876C25.531 9.89876 26.8659 9.99958 28.1497 10.1913C28.1354 10.0958 28.1281 9.99815 28.1281 9.89876C28.1281 8.80535 29.0146 7.91895 30.1079 7.91895ZM32.789 12.5968C32.4917 12.5023 32.4189 12.5444 32.3143 12.7215L32.1895 12.9434C31.5173 14.1039 30.1877 14.6305 28.9527 14.3617C27.4617 14.0371 25.8493 13.8585 24.1621 13.8585C22.4747 13.8585 20.8623 14.0371 19.3714 14.3617C18.1363 14.6305 16.8066 14.1039 16.1346 12.9434L16.0109 12.7231C15.9072 12.5469 15.8351 12.5035 15.5406 12.597C14.8359 12.8209 14.0791 13.0613 13.472 13.462C12.9037 13.8882 12.1432 14.9481 11.3501 16.7065C9.83427 20.0669 8.646 25.0313 8.26577 28.5851C8.18541 29.3362 8.14535 29.9792 8.13465 30.5099L8.13519 31.0924C8.14401 31.4445 8.16882 31.7235 8.204 31.9272C8.70708 32.4187 9.32912 32.8059 9.95264 33.16L11.304 33.9051L12.1868 34.3711L12.9076 32.9296C12.2848 32.3458 12.0906 31.4008 12.4925 30.5986C12.9823 29.6209 14.1719 29.2256 15.1494 29.7154C17.5569 30.9215 20.6901 31.6768 24.1617 31.6768C27.6333 31.6768 30.7666 30.9215 33.174 29.7154C34.1515 29.2256 35.3412 29.6209 35.831 30.5986C36.1963 31.3279 36.069 32.1751 35.5749 32.7618L35.4158 32.9296L36.138 34.3741C36.7276 34.0702 37.32 33.7483 37.9131 33.4196C38.6843 32.9922 39.4974 32.5416 40.1262 31.9272C40.1614 31.7235 40.1862 31.4445 40.1951 31.0924L40.1957 30.5099C40.185 29.9792 40.145 29.3362 40.0646 28.5851C39.6843 25.0313 38.496 20.0669 36.9803 16.7065C36.1871 14.9481 35.4277 13.8888 34.8593 13.4626C34.2517 13.0615 33.4942 12.8209 32.789 12.5968ZM17.7277 20.7878C19.6412 20.7878 21.1924 22.339 21.1924 24.2525C21.1924 26.166 19.6412 27.7171 17.7277 27.7171C15.8142 27.7171 14.263 26.166 14.263 24.2525C14.263 22.339 15.8142 20.7878 17.7277 20.7878ZM30.5965 20.7878C32.51 20.7878 34.0612 22.339 34.0612 24.2525C34.0612 26.166 32.51 27.7171 30.5965 27.7171C28.683 27.7171 27.1318 26.166 27.1318 24.2525C27.1318 22.339 28.683 20.7878 30.5965 20.7878Z" fill="#141736"/>
</svg>
