<svg width="29" height="35" viewBox="0 0 29 35" fill="none" xmlns="http://www.w3.org/2000/svg">
<path fill-rule="evenodd" clip-rule="evenodd" d="M9.9744 0.532598C10.2717 0.235358 10.6748 0.0683594 11.0952 0.0683594H23.7754C26.4016 0.0683594 28.5305 2.19729 28.5305 4.82344V30.1839C28.5305 32.8101 26.4016 34.939 23.7754 34.939H4.75508C2.12893 34.939 0 32.8101 0 30.1839V11.1635C0 10.7432 0.166999 10.34 0.464239 10.0428L9.9744 0.532598ZM23.7754 3.23841H12.6802V11.1635C12.6802 12.0389 11.9706 12.7486 11.0952 12.7486H3.17005V30.1839C3.17005 31.0593 3.8797 31.7689 4.75508 31.7689H23.7754C24.6508 31.7689 25.3604 31.0593 25.3604 30.1839V4.82344C25.3604 3.94806 24.6508 3.23841 23.7754 3.23841ZM5.41162 9.57852H9.51016V5.47997L5.41162 9.57852ZM6.34011 19.0887C6.34011 18.2133 7.04976 17.5037 7.92514 17.5037H20.6054C21.4808 17.5037 22.1904 18.2133 22.1904 19.0887C22.1904 19.9641 21.4808 20.6737 20.6054 20.6737H7.92514C7.04976 20.6737 6.34011 19.9641 6.34011 19.0887ZM6.34011 25.4288C6.34011 24.5534 7.04976 23.8438 7.92514 23.8438H20.6054C21.4808 23.8438 22.1904 24.5534 22.1904 25.4288C22.1904 26.3042 21.4808 27.0138 20.6054 27.0138H7.92514C7.04976 27.0138 6.34011 26.3042 6.34011 25.4288Z" fill="#141736"/>
</svg>
