<svg width="34" height="34" viewBox="0 0 34 34" fill="none" xmlns="http://www.w3.org/2000/svg">
<path d="M17.691 12.3065C17.691 12.5007 17.691 13.1336 17.691 14.0328H20.7119L20.3843 16.7887H17.691C17.691 21.0388 17.691 26.7342 17.691 26.7342H14.116C14.116 26.7342 14.116 21.1142 14.116 16.7887H12.2532V14.0328H14.116C14.116 12.9399 14.116 12.1627 14.116 11.9463C14.116 10.9154 14.0401 10.4262 14.4681 9.62731C14.8964 8.82845 16.1044 7.77251 18.1938 7.79794C20.2836 7.82428 21.1645 8.03003 21.1645 8.03003L20.7119 10.9671C20.7119 10.9671 19.3774 10.6065 18.7223 10.7351C18.0682 10.8636 17.691 11.276 17.691 12.3065Z" fill="#141736"/>
<circle cx="16.7088" cy="16.7088" r="15.7088" stroke="#141736" stroke-width="2"/>
</svg>
