<svg width="34" height="34" viewBox="0 0 34 34" fill="none" xmlns="http://www.w3.org/2000/svg">
<path fill-rule="evenodd" clip-rule="evenodd" d="M16.7089 26.1795C21.7423 26.1795 25.8228 22.099 25.8228 17.0656C25.8228 12.0321 21.7423 7.95166 16.7089 7.95166C11.6754 7.95166 7.59496 12.0321 7.59496 17.0656C7.59496 22.099 11.6754 26.1795 16.7089 26.1795ZM16.7089 23.1415C20.0644 23.1415 22.7848 20.4212 22.7848 17.0656C22.7848 13.7099 20.0644 10.9896 16.7089 10.9896C13.3532 10.9896 10.6329 13.7099 10.6329 17.0656C10.6329 20.4212 13.3532 23.1415 16.7089 23.1415Z" fill="#141736"/>
<path d="M25.8228 6.43262C24.9838 6.43262 24.3038 7.1127 24.3038 7.9516C24.3038 8.79051 24.9838 9.47059 25.8228 9.47059C26.6617 9.47059 27.3417 8.79051 27.3417 7.9516C27.3417 7.1127 26.6617 6.43262 25.8228 6.43262Z" fill="#141736"/>
<path fill-rule="evenodd" clip-rule="evenodd" d="M0.993355 5.33297C0 7.28254 0 9.83468 0 14.9389V19.1921C0 24.2963 0 26.8485 0.993355 28.798C1.86714 30.5129 3.26138 31.9072 4.97628 32.7809C6.92585 33.7743 9.47799 33.7743 14.5822 33.7743H18.8354C23.9396 33.7743 26.4918 33.7743 28.4413 32.7809C30.1562 31.9072 31.5505 30.5129 32.4242 28.798C33.4177 26.8485 33.4177 24.2963 33.4177 19.1921V14.9389C33.4177 9.83468 33.4177 7.28254 32.4242 5.33297C31.5505 3.61807 30.1562 2.22382 28.4413 1.35004C26.4918 0.356689 23.9396 0.356689 18.8354 0.356689H14.5822C9.47799 0.356689 6.92585 0.356689 4.97628 1.35004C3.26138 2.22382 1.86714 3.61807 0.993355 5.33297ZM18.8354 3.39466H14.5822C11.98 3.39466 10.211 3.39703 8.84365 3.50873C7.51174 3.61755 6.83063 3.81479 6.35549 4.05689C5.21223 4.63942 4.28273 5.56892 3.7002 6.71218C3.4581 7.18732 3.26086 7.86843 3.15204 9.20034C3.04034 10.5677 3.03797 12.3367 3.03797 14.9389V19.1921C3.03797 21.7944 3.04034 23.5633 3.15204 24.9307C3.26086 26.2627 3.4581 26.9438 3.7002 27.4189C4.28273 28.5621 5.21223 29.4916 6.35549 30.0741C6.83063 30.3162 7.51174 30.5135 8.84365 30.6223C10.211 30.7339 11.98 30.7364 14.5822 30.7364H18.8354C21.4377 30.7364 23.2066 30.7339 24.574 30.6223C25.906 30.5135 26.5871 30.3162 27.0622 30.0741C28.2054 29.4916 29.1349 28.5621 29.7174 27.4189C29.9595 26.9438 30.1569 26.2627 30.2656 24.9307C30.3773 23.5633 30.3797 21.7944 30.3797 19.1921V14.9389C30.3797 12.3367 30.3773 10.5677 30.2656 9.20034C30.1569 7.86843 29.9595 7.18732 29.7174 6.71218C29.1349 5.56892 28.2054 4.63942 27.0622 4.05689C26.5871 3.81479 25.906 3.61755 24.574 3.50873C23.2066 3.39703 21.4377 3.39466 18.8354 3.39466Z" fill="#141736"/>
</svg>
