<svg width="42" height="32" viewBox="0 0 42 32" fill="none" xmlns="http://www.w3.org/2000/svg">
<path d="M39.0096 3.16712C37.5589 3.16712 36.3792 4.34685 36.3792 5.79682C36.3792 6.56533 36.7164 7.25134 37.2439 7.73206L26.4341 16.6047L21.4988 5.72861C22.6188 5.42718 23.4503 4.41246 23.4503 3.1983C23.4503 1.74833 22.2699 0.568604 20.82 0.568604C19.37 0.568604 18.1896 1.74833 18.1896 3.1983C18.1896 4.41246 19.0211 5.42653 20.1411 5.72861L15.2052 16.6047L4.39604 7.73271C4.92354 7.25134 5.2607 6.56533 5.2607 5.79747C5.2607 4.34685 4.08032 3.16712 2.63035 3.16712C1.18038 3.16712 0 4.34685 0 5.79682C0 7.24679 1.17973 8.42652 2.63035 8.42652C2.86551 8.42652 3.08964 8.38559 3.30661 8.32712C3.31116 8.34661 3.30921 8.36675 3.31571 8.38689L9.50537 27.2852H8.47766C8.147 27.2852 7.87935 27.5535 7.87935 27.8836V30.4821C7.87935 30.8127 8.147 31.0804 8.47766 31.0804H33.1636C33.4942 31.0804 33.7619 30.8121 33.7619 30.4821V27.8836C33.7619 27.5529 33.4942 27.2852 33.1636 27.2852H32.1358L38.3255 8.38689C38.332 8.3674 38.3301 8.34726 38.3346 8.32712C38.5516 8.38559 38.7757 8.42652 39.0109 8.42652C40.4608 8.42652 41.6412 7.24679 41.6412 5.79682C41.6412 4.34685 40.4595 3.16712 39.0096 3.16712ZM1.36292 5.79682C1.36292 5.09782 1.93135 4.52874 2.63035 4.52874C3.32935 4.52939 3.89777 5.09782 3.89777 5.79682C3.89777 6.49647 3.32935 7.06489 2.63035 7.06489C1.93135 7.06489 1.36292 6.49647 1.36292 5.79682ZM32.5646 29.8844H9.07532V28.4832H32.5646V29.8844ZM19.5525 3.1983C19.5525 2.4993 20.121 1.93023 20.82 1.93023C21.519 1.93088 22.0874 2.4993 22.0874 3.1983C22.0874 3.8973 21.519 4.46638 20.82 4.46638C20.121 4.46638 19.5525 3.8973 19.5525 3.1983ZM30.7898 27.2378H10.8495L5.23471 10.0941L15.0357 18.1385C15.1916 18.2664 15.3982 18.3145 15.5924 18.2684C15.7886 18.2229 15.9516 18.0891 16.0348 17.9059L20.82 7.36177L25.6051 17.9059C25.6883 18.0891 25.8513 18.2229 26.0475 18.2684C26.2418 18.3152 26.4483 18.2664 26.6043 18.1385L36.4052 10.0941L30.7898 27.2378ZM39.0096 7.06489C38.3106 7.06489 37.7421 6.49647 37.7421 5.79682C37.7421 5.09782 38.3106 4.52874 39.0096 4.52874C39.7086 4.52939 40.277 5.09782 40.277 5.79682C40.277 6.49647 39.7086 7.06489 39.0096 7.06489Z" fill="#141736"/>
</svg>
