<svg width="35" height="36" viewBox="0 0 35 36" fill="none" xmlns="http://www.w3.org/2000/svg">
<g clip-path="url(#clip0_184_1582)">
<path d="M1.45294 26.4859C1.45294 22.171 1.45294 20.0135 2.79345 18.6729C4.13395 17.3324 6.29145 17.3324 10.6065 17.3324H22.8112C27.1262 17.3324 29.2836 17.3324 30.6242 18.6729C31.9647 20.0135 31.9647 22.171 31.9647 26.4859C31.9647 30.8009 31.9647 32.9584 30.6242 34.2989C29.2836 35.6395 27.1262 35.6395 22.8112 35.6395H10.6065C6.29145 35.6395 4.13395 35.6395 2.79345 34.2989C1.45294 32.9584 1.45294 30.8009 1.45294 26.4859Z" stroke="#141736" stroke-width="2"/>
<path d="M7.55531 17.3324V14.2812C7.55531 9.22586 11.6535 5.12769 16.7088 5.12769C20.9741 5.12769 24.5578 8.04486 25.574 11.9928" stroke="#141736" stroke-width="2" stroke-linecap="round"/>
<path d="M10.6065 26.486H10.6202M16.6951 26.486H16.7088M22.7975 26.486H22.8112" stroke="#141736" stroke-width="2" stroke-linecap="round" stroke-linejoin="round"/>
</g>
<defs>
<clipPath id="clip0_184_1582">
<rect width="34.8706" height="34.8706" fill="white" transform="translate(0 0.768555)"/>
</clipPath>
</defs>
</svg>
