<svg width="35" height="36" viewBox="0 0 35 36" fill="none" xmlns="http://www.w3.org/2000/svg">
<path d="M12.4514 24.0101C12.4514 24.7939 11.8161 25.4292 11.0323 25.4292C10.2485 25.4292 9.61314 24.7939 9.61314 24.0101C9.61314 23.2263 10.2485 22.5909 11.0323 22.5909C11.8161 22.5909 12.4514 23.2263 12.4514 24.0101Z" fill="#141736"/>
<path d="M18.1279 24.0101C18.1279 24.7939 17.4925 25.4292 16.7087 25.4292C15.9249 25.4292 15.2896 24.7939 15.2896 24.0101C15.2896 23.2263 15.9249 22.5909 16.7087 22.5909C17.4925 22.5909 18.1279 23.2263 18.1279 24.0101Z" fill="#141736"/>
<path d="M22.3854 25.4292C23.1692 25.4292 23.8045 24.7939 23.8045 24.0101C23.8045 23.2263 23.1692 22.5909 22.3854 22.5909C21.6016 22.5909 20.9662 23.2263 20.9662 24.0101C20.9662 24.7939 21.6016 25.4292 22.3854 25.4292Z" fill="#141736"/>
<path fill-rule="evenodd" clip-rule="evenodd" d="M7.12955 12.657V14.5059C6.80764 14.5285 6.50424 14.558 6.21881 14.5963C4.94142 14.7681 3.86588 15.1355 3.01167 15.9896C2.15745 16.844 1.79005 17.9194 1.6183 19.1968C1.45289 20.4272 1.45291 21.9915 1.45294 23.9323V24.0882C1.45291 26.029 1.45289 27.5933 1.6183 28.8237C1.79005 30.1011 2.15745 31.1765 3.01167 32.0307C3.86588 32.8851 4.94142 33.2525 6.21881 33.4242C7.44917 33.5895 9.01353 33.5895 10.9544 33.5895H22.4633C24.4042 33.5895 25.9685 33.5895 27.1989 33.4242C28.4763 33.2525 29.5517 32.8851 30.4061 32.0307C31.2602 31.1765 31.6277 30.1011 31.7994 28.8237C31.9647 27.5933 31.9647 26.029 31.9647 24.0882V23.9323C31.9647 21.9915 31.9647 20.4272 31.7994 19.1968C31.6277 17.9194 31.2602 16.844 30.4061 15.9896C29.5517 15.1355 28.4763 14.7681 27.1989 14.5963C26.9134 14.558 26.61 14.5285 26.2881 14.5059V12.657C26.2881 7.36655 21.9993 3.07776 16.7088 3.07776C11.4183 3.07776 7.12955 7.36655 7.12955 12.657ZM16.7088 5.20649C12.594 5.20649 9.25828 8.54222 9.25828 12.657V14.4359C9.78832 14.431 10.3532 14.431 10.9542 14.431H22.4633C23.0642 14.431 23.6293 14.431 24.1594 14.4359V12.657C24.1594 8.54222 20.8237 5.20649 16.7088 5.20649ZM6.50246 16.706C5.46112 16.8461 4.90967 17.1021 4.51691 17.4949C4.12414 17.8877 3.86806 18.4391 3.72806 19.4805C3.58393 20.5525 3.58167 21.9732 3.58167 24.0103C3.58167 26.0473 3.58393 27.468 3.72806 28.54C3.86806 29.5814 4.12414 30.1328 4.51691 30.5256C4.90967 30.9184 5.46112 31.1744 6.50246 31.3145C7.57441 31.4585 8.99515 31.4608 11.0322 31.4608H22.3854C24.4225 31.4608 25.8432 31.4585 26.9152 31.3145C27.9566 31.1744 28.5079 30.9184 28.9008 30.5256C29.2936 30.1328 29.5496 29.5814 29.6897 28.54C29.8337 27.468 29.836 26.0473 29.836 24.0103C29.836 21.9732 29.8337 20.5525 29.6897 19.4805C29.5496 18.4391 29.2936 17.8877 28.9008 17.4949C28.5079 17.1021 27.9566 16.8461 26.9152 16.706C25.8432 16.562 24.4225 16.5597 22.3854 16.5597H11.0322C8.99515 16.5597 7.57441 16.562 6.50246 16.706Z" fill="#141736"/>
</svg>
