<svg width="36" height="36" viewBox="0 0 36 36" fill="none" xmlns="http://www.w3.org/2000/svg">
<path d="M33.9647 5.65539L30.4131 18.0861H9.77224M32.1889 25.1894H10.8791L7.32745 2.10376H2M17.0944 9.20703L20.6461 12.7587M20.6461 12.7587L24.1977 9.20703M20.6461 12.7587V2.10376M12.6549 32.2927C12.6549 33.2734 11.8598 34.0685 10.8791 34.0685C9.89834 34.0685 9.10327 33.2734 9.10327 32.2927C9.10327 31.3119 9.89834 30.5168 10.8791 30.5168C11.8598 30.5168 12.6549 31.3119 12.6549 32.2927ZM32.1889 32.2927C32.1889 33.2734 31.3939 34.0685 30.4131 34.0685C29.4323 34.0685 28.6373 33.2734 28.6373 32.2927C28.6373 31.3119 29.4323 30.5168 30.4131 30.5168C31.3939 30.5168 32.1889 31.3119 32.1889 32.2927Z" stroke="#141736" stroke-width="2.5" stroke-linecap="round" stroke-linejoin="round"/>
</svg>
