<svg width="32" height="32" viewBox="0 0 32 32" fill="none" xmlns="http://www.w3.org/2000/svg">
<path d="M21.4677 19.7338L25.2728 16.8814C29.7832 13.4967 31.7797 6.6717 30.7712 1.12682C25.2244 0.118319 18.3994 2.11485 15.0166 6.62518L12.1642 10.4303M21.4677 19.7338L14.9552 24.3856L7.51245 16.9428L12.1642 10.4303M21.4677 19.7338V24.6963C21.4677 26.3067 20.9454 27.8737 19.9791 29.162L18.6766 30.898L16.8159 29.0373M12.1642 10.4303H7.20171C5.59131 10.4303 4.02435 10.9526 2.73603 11.9189L1 13.2214L2.8607 15.0821M9.37315 27.1766L2.8607 29.0373L5.03027 22.5249M22.398 11.3607C22.8915 11.3607 23.3648 11.1646 23.7138 10.8157C24.0627 10.4667 24.2587 9.99345 24.2587 9.49996C24.2587 9.00648 24.0627 8.5332 23.7138 8.18425C23.3648 7.8353 22.8915 7.63926 22.398 7.63926C21.9046 7.63926 21.4313 7.8353 21.0823 8.18425C20.7334 8.5332 20.5373 9.00648 20.5373 9.49996C20.5373 9.99345 20.7334 10.4667 21.0823 10.8157C21.4313 11.1646 21.9046 11.3607 22.398 11.3607Z" stroke="black" stroke-width="1.6" stroke-linecap="round" stroke-linejoin="round"/>
</svg>
