<svg width="35" height="35" viewBox="0 0 35 35" fill="none" xmlns="http://www.w3.org/2000/svg">
<path d="M9.06629 2.90588H6.30571C3.12376 2.90588 1.45288 4.57677 1.45288 7.74418V10.5048C1.45288 13.6722 3.12376 15.3431 6.29118 15.3431H9.05176C12.2192 15.3431 13.8901 13.6722 13.8901 10.5048V7.74418C13.9046 4.57677 12.2337 2.90588 9.06629 2.90588Z" fill="url(#paint0_linear_75_11)"/>
<path opacity="0.6" d="M25.6735 2.90588H22.9129C19.7455 2.90588 18.0746 4.57677 18.0746 7.74418V10.5048C18.0746 13.6722 19.7455 15.3431 22.9129 15.3431H25.6735C28.8409 15.3431 30.5118 13.6722 30.5118 10.5048V7.74418C30.5118 4.57677 28.8409 2.90588 25.6735 2.90588Z" fill="url(#paint1_linear_75_11)"/>
<path d="M25.6735 19.5131H22.9129C19.7455 19.5131 18.0746 21.1839 18.0746 24.3514V27.1119C18.0746 30.2794 19.7455 31.9502 22.9129 31.9502H25.6735C28.8409 31.9502 30.5118 30.2794 30.5118 27.1119V24.3514C30.5118 21.1839 28.8409 19.5131 25.6735 19.5131Z" fill="url(#paint2_linear_75_11)"/>
<path opacity="0.6" d="M9.06629 19.5131H6.30571C3.12376 19.5131 1.45288 21.1839 1.45288 24.3514V27.1119C1.45288 30.2939 3.12376 31.9648 6.29118 31.9648H9.05176C12.2192 31.9648 13.8901 30.2939 13.8901 27.1265V24.3659C13.9046 21.1839 12.2337 19.5131 9.06629 19.5131Z" fill="url(#paint3_linear_75_11)"/>
<defs>
<linearGradient id="paint0_linear_75_11" x1="1.45288" y1="9.22318" x2="13.8902" y2="9.22318" gradientUnits="userSpaceOnUse">
<stop stop-color="#FBE500"/>
<stop offset="1" stop-color="#B4EF4C"/>
</linearGradient>
<linearGradient id="paint1_linear_75_11" x1="18.0746" y1="9.22318" x2="30.5118" y2="9.22318" gradientUnits="userSpaceOnUse">
<stop stop-color="#FBE500"/>
<stop offset="1" stop-color="#B4EF4C"/>
</linearGradient>
<linearGradient id="paint2_linear_75_11" x1="18.0746" y1="25.8304" x2="30.5118" y2="25.8304" gradientUnits="userSpaceOnUse">
<stop stop-color="#FBE500"/>
<stop offset="1" stop-color="#B4EF4C"/>
</linearGradient>
<linearGradient id="paint3_linear_75_11" x1="1.45288" y1="25.8377" x2="13.8902" y2="25.8377" gradientUnits="userSpaceOnUse">
<stop stop-color="#FBE500"/>
<stop offset="1" stop-color="#B4EF4C"/>
</linearGradient>
</defs>
</svg>
