<svg width="30" height="34" viewBox="0 0 30 34" fill="none" xmlns="http://www.w3.org/2000/svg">
<path d="M29.264 26.1186L15.9751 33.682C15.2682 34.1061 14.3493 34.1061 13.6424 33.682L0.424116 26.1186C-0.141372 25.8358 -0.141372 25.1289 0.424116 24.8462L3.5343 23.0791C3.74636 22.9377 4.02911 22.9377 4.24116 23.0791L12.2994 27.6736C13.0769 28.0978 13.9252 28.3098 14.8441 28.3098C15.763 28.3098 16.6112 28.0978 17.3888 27.6736L25.447 23.0791C25.659 22.9377 25.9418 22.9377 26.1538 23.0791L29.264 24.8462C29.8295 25.1289 29.8295 25.8358 29.264 26.1186Z" fill="url(#paint0_linear_3_3155)"/>
<path d="M29.264 17.6363L15.9751 25.1997C15.2682 25.6238 14.3493 25.6238 13.6424 25.1997L0.424116 17.6363C-0.141372 17.3535 -0.141372 16.6466 0.424116 16.3639L3.5343 14.5968C3.74636 14.4554 4.02911 14.4554 4.24116 14.5968L12.2994 19.1913C13.0769 19.6155 13.9252 19.8275 14.8441 19.8275C15.763 19.8275 16.6112 19.6155 17.3888 19.1913L25.447 14.5968C25.659 14.4554 25.9418 14.4554 26.1538 14.5968L29.264 16.3639C29.8295 16.6466 29.8295 17.3535 29.264 17.6363Z" fill="url(#paint1_linear_3_3155)"/>
<path d="M13.7838 16.7173L0.494856 9.15385C-0.0706324 8.8711 -0.0706324 8.16424 0.494856 7.8815L13.7838 0.318087C14.4907 -0.106029 15.4096 -0.106029 16.1165 0.318087L29.4055 7.8815C29.9709 8.16424 29.9709 8.8711 29.4055 9.15385L16.1165 16.7173C15.4096 17.0707 14.4907 17.0707 13.7838 16.7173Z" fill="url(#paint2_linear_3_3155)"/>
<defs>
<linearGradient id="paint0_linear_3_3155" x1="-6.55947e-08" y1="28.5741" x2="29.6881" y2="28.5741" gradientUnits="userSpaceOnUse">
<stop stop-color="#FBE500"/>
<stop offset="1" stop-color="#B4EF4C"/>
</linearGradient>
<linearGradient id="paint1_linear_3_3155" x1="-6.55947e-08" y1="20.0918" x2="29.6881" y2="20.0918" gradientUnits="userSpaceOnUse">
<stop stop-color="#FBE500"/>
<stop offset="1" stop-color="#B4EF4C"/>
</linearGradient>
<linearGradient id="paint2_linear_3_3155" x1="0.0707397" y1="8.62595" x2="29.8296" y2="8.62595" gradientUnits="userSpaceOnUse">
<stop stop-color="#FBE500"/>
<stop offset="1" stop-color="#B4EF4C"/>
</linearGradient>
</defs>
</svg>
